<?xml version="1.0" encoding="utf-8"?>
<!-- Generator: Adobe Illustrator 25.4.1, SVG Export Plug-In . SVG Version: 6.00 Build 0)  -->
<svg version="1.1" id="Layer_1" xmlns="http://www.w3.org/2000/svg" xmlns:xlink="http://www.w3.org/1999/xlink" x="0px" y="0px"
	 viewBox="0 0 544.3 544.59" style="enable-background:new 0 0 544.3 544.59;" xml:space="preserve">
<style type="text/css">
	.st0{fill:#FFFFFF;}
</style>
<g>
	<path class="st0" d="M544.3,272.22c0.29,149.59-121.35,272.15-270.32,272.37C122.96,544.81,0.95,423.78,0.01,274.29
		C-0.94,124.01,120.32,0.12,271.96,0C423.6-0.12,544.91,123.08,544.3,272.22z M272.27,521.02
		c137.59,0.27,248.8-110.74,248.81-249.26c0-137.24-110.86-246.37-244.86-248.33C135.74,21.36,24.21,134.54,23.29,270.31
		C22.34,409.13,135.04,521.67,272.27,521.02z"/>
	<path class="st0" d="M270.2,255.79c12.25,27.51,7.53,54.05-4.22,81.17c-13.01-14.23-27.38-24.88-45.08-30.66
		c-17.52-5.71-35.07-5.91-52.79-1.2c8.84,0.35,17.67,0.46,26.32,2.66c21.58,5.51,36.69,18.81,44.69,39.27
		c10.54,26.96,16.34,55.16,17.6,84.1c1,22.86-4.63,44.16-17.58,63.3c-1.55,2.3-2.96,3.28-6.07,2.69
		c-63.77-12.11-113.48-45.41-149.47-99.22c-19.09-28.54-30.25-60.19-35.05-94.11c-0.41-2.9-1.81-7.5,0-8.51
		c2.53-1.41,4.58,2.77,6.81,4.5c9.72,7.52,20.36,13.15,32.07,16.82c18.72,5.86,34.75,0.94,48.57-12.31
		c3.79-3.63,7.47-7.46,10.15-12.59c-17.13,1.8-33.79,3.22-49.52-5.04c13.41-3.61,26.69-7.53,40.79-6.45
		c2.25,0.17,5.54,1.68,6.5-0.06c1.28-2.32-1.9-4.18-3.34-6.08c-7.43-9.84-16.62-17.21-29.06-19.54c-13.29-2.49-24.86,2.1-35.72,9.17
		c-10.67,6.95-19.5,15.94-28.4,26.4c-1.57-15.19-1-29.28,1.06-44.05c10.72,7.75,22.18,9.11,35.23,6.26
		c-9.6-7.28-18.58-14.3-22.44-25.79c9.72,4.9,19.47,9.64,26.16,18.81c2.84-4.73,2.58-16.4-0.29-23
		c-4.37-10.06-12.56-15.12-22.77-17.56c-6.77-1.62-6.76-1.59-4.37-8.36c9.28-26.3,23.24-49.88,41.27-71.1
		c3.09-3.64,6.38-7.11,9.63-10.61c0.76-0.82,1.77-1.4,3.04-2.39c1.98,12.87,3.74,25.57,15.46,33.41c7.1,4.75,15.17,6.34,24.91,6.94
		c-7.66-9.94-15.18-18.88-16.68-31.46c5.1,3.59,8.85,7.83,12.89,11.75c4.07,3.95,6.87,8.78,9.43,14.18
		c8.83-16.51,5.96-34.62-11.34-44.15c-3.8-2.09-7.91-3.44-11.94-5c-2.95-1.15-4.77-2.53-0.83-5.48
		c23.15-17.32,48.39-30.26,76.35-37.93c13.2-3.62,26.59-5.88,40.16-7.37c1.47-0.16,2.91-0.44,4.37,0.12
		c0.14,1.92-1.3,2.99-2.22,4.32c-7.48,10.71-13.26,22.26-17.13,34.74c-6.57,21.15-0.77,39.64,12.48,56.39
		c4.84,6.12,10.21,11.77,17.56,16.89c-2.29-23.21-1.26-45.19,10.24-65.46c4.22,21.28,9.2,42.44,3.18,64.61
		c23.6-11.89,40.15-31.56,39.31-55.46c-0.44-12.45-4.94-23.67-11.02-34.36c-4.1-7.21-8.9-13.96-14.9-21.35
		c25.03,2.03,47.68,8.48,70.61,18.58c-14.78,2.08-28.25,4.75-36.39,17.36c-4.5,6.98-4.18,15.02-2.75,24.17
		c6.44-7.88,12.09-15.07,21.8-18.54c-3.64,9-10.11,15.21-15.53,22.1c16.03,5.12,28.82-3.67,32.34-17.83
		c1.09-4.38,1.79-8.79,1.86-13.31c0.07-4.31-0.14-8.61-0.99-13.62c8.78,3.57,16.41,7.78,23.82,12.35
		c38.23,23.56,67.25,55.5,86.85,95.92c9.19,18.95,15.41,38.86,19.02,59.63c0.57,3.28-1.02,3.26-3.07,3.46
		c-6.78,0.67-13.6,1.06-19.63,4.91c-10.5,6.7-14.86,16.82-16.92,29.55c10.37-6.91,20.34-12.31,33.64-12.5
		c-9.31,8.08-17.58,15.31-28.73,18.36c7.41,8.28,20.58,9.38,37.9,3.3c-0.3,13.61-2.08,26.93-4.95,40.06
		c-8.15,37.24-24.4,70.57-49.2,99.58c-29.67,34.7-66.62,58.16-110.35,71.16c-4.52,1.34-6.93,0.24-9.3-3.49
		c-9.23-14.51-13.76-30.62-15.78-47.4c-2.79-23.25-0.78-46.18,7.27-68.32c8.4-23.09,21.63-43.11,39-60.49
		c5.12-5.12,10.21-10.28,15.19-15.72c-27.26,8.87-50.95,23.78-72.88,42.85c2.83-20.12-2.2-38.18-8.14-56.02
		c-3.32-9.98-7.63-19.54-15.78-26.74c-0.81-0.72-1.52-1.9-2.94-1.16c-0.05-0.21-0.11-0.43-0.16-0.64c-0.03,0.09-0.12,0.22-0.09,0.27
		C269.94,255.6,270.08,255.69,270.2,255.79z M207.35,156.63c14.01,8.29,27.96,16.66,38.1,31.55c2.65-12.62,3.3-23.75-0.35-34.74
		c-3.61-10.86-11.5-18.86-21.41-23.04c-16.07-6.79-33.42-7.93-50.84-6.49c-3.48,0.29-4.43,2-4.29,5.23
		c0.67,15.35,4.4,29.83,11.59,43.44c11.21,21.22,32.88,28.17,57.64,23.16c-0.58-1.52-2.01-2.14-3.16-3
		c-8.49-6.31-15.8-13.8-21.6-22.61c-2.67-4.05-5.85-8.09-5.57-13.45L207.35,156.63z M392.99,272.28c8.51,1.79,15.94,1,23.38,0.49
		c22.9-1.59,41.54-16.83,47.98-38.9c5.85-20.04,4.59-40.17,1.36-60.35c-1.8-11.22-1.94-11.19-13.2-9.18
		c-0.82,0.15-1.65,0.22-2.46,0.4c-21.07,4.7-40.49,12.98-56.23,28.07c-15.52,14.87-18.46,33.93-16.14,54.31
		c0.67,5.93,1.42,11.88,4.27,17.99c11.5-20.15,24.67-37.73,45.86-47.58C418.89,237.15,411.36,257.57,392.99,272.28z M158.89,255.19
		c3.37-2.35,4.81-5.38,6.56-8.09c18.84-29.37,15.64-57.87-9.23-79.71c-14.83-13.02-32.31-21.42-50.77-28c-2.82-1-3.81,0.15-4.88,2.4
		c-8.81,18.62-11.62,38.29-10.83,58.7c0.46,11.96,3.5,23.06,10.67,32.67c11.14,14.94,26.81,22.92,44.32,27.86
		c0.59,0.17,1.32,0.19,1.6-0.95c-10.48-19.44-18.8-39.65-15.89-62.69C142.28,215.4,155.93,232.43,158.89,255.19z M315.44,195.71
		c0.23,0.35,0.47,0.69,0.7,1.04c5.13,0,10.28,0.21,15.4-0.04c18.68-0.91,33.82-13.44,38.54-31.44c4.28-16.33,2.9-32.59-0.15-48.87
		c-0.59-3.15-2.39-3.7-5.36-3.27c-12.49,1.79-24.09,6-35.03,12.2c-13.28,7.53-23.44,17.48-25.93,33.35
		c-1.67,10.64-2.17,21.2,2.88,31.81c8.43-15.21,18.63-28.07,34.45-35.49C334.58,169.97,328.47,184.96,315.44,195.71z M369.33,275.9
		c2.93-5.09,3.66-9.85,4.54-14.52c3.55-18.96-2.88-34.76-18.33-44.49c-15.38-9.68-32.64-12.63-50.44-13.44
		c-3.08-0.14-3.46,1.55-3.77,3.95c-1.62,12.91-0.21,25.52,3.21,38.02c7.68,28.07,27.17,37.52,52.65,38.23
		c1.07,0.03,2.57,0.63,3.1-0.76c0.49-1.28-0.83-2.04-1.6-2.84c-4.85-5.04-9.56-10.19-13.34-16.1c-4.6-7.21-8.87-14.58-9.82-24.29
		C348.61,250.41,361.37,260.24,369.33,275.9z M392.69,305.85c-0.76,2.73,0.16,4.64,0.57,6.54c5.76,26.66,22.94,40.06,49.5,38.1
		c14.44-1.07,27.85-6.07,40.83-12.33c3.11-1.5,2.32-3.46,1.4-5.73c-5.96-14.63-15.22-26.85-27.1-37.16
		c-19.3-16.76-45.4-11.67-62,0.23c16.61,4.59,32.07,10.98,44.15,25.27c-10.29-1.25-19.22-3.86-28.25-6.02
		C404.89,313.09,399.09,309.1,392.69,305.85z M187.31,286.44c7.26,0.55,13.35,0.33,19.43-0.8c18.16-3.38,30.11-14.86,33.99-32.8
		c3.39-15.64,1.79-31.1-1.95-46.43c-1.58-6.49-1.73-6.31-8.39-4.99c-14,2.77-26.23,9.26-37.74,17.4
		c-22.12,15.65-22.05,43.35-13.78,61.95c8.06-15.17,17.06-29.35,33.89-38.25C205.88,258.63,200.71,274.29,187.31,286.44z
		 M149.61,311.12c-5.13,1.54-9.7,3.71-13.82,6.83c-8.35,6.32-12.43,14.66-11.45,25.09c1.24,13.19,7.41,24.3,15.38,34.57
		c1.83,2.36,3.4,0.98,5.1-0.14c8.96-5.89,15.76-13.79,20.91-23.09c4.63-8.38,5.99-17.27,2.22-26.32
		c-2.41-5.79-4.93-11.68-10.53-16.1c-1.25,11.78-2.99,22.67-10.77,31.45C146.41,332.56,144.88,321.68,149.61,311.12z M276.23,237.54
		c4.25-0.79,6.63-3.67,9.17-5.94c8.36-7.46,13.39-16.39,10.93-28.18c-2.93-14.04-11.65-24.31-21.67-33.78
		c-1.04-0.99-1.92-0.99-3-0.03c-10.26,9.08-17.82,20.01-20.03,33.62c-2.2,13.54,4.27,24,14.24,32.6c0.63,0.54,0.45,2.21,1.95,1.45
		c0.92-0.46,0.6-1.4,0.59-2.2c-0.06-3.66-0.19-7.31-0.11-10.97c0.11-4.84,1.17-9.52,2.62-14.13c0.52-1.65,1.09-3.79,2.76-3.72
		c2.24,0.09,1.9,2.68,2.38,4.32c0.23,0.78,0.07,1.66,0.2,2.47C277.51,221.1,278.07,229.15,276.23,237.54z M399.22,152.54
		c-3.8,11.51-6.79,22.3-14.11,31.97c4.57,0.17,7.91-0.83,11.3-1.61c9.68-2.22,17.14-7.3,20.86-16.74
		c5.85-14.85,1.79-29.11-3.07-43.26c-0.85-2.49-2.73-1.31-4.18-0.9c-8.77,2.49-16.49,6.91-23.55,12.66
		c-15.54,12.66-15.59,25.3-10.99,41.73c0.23,0.84,1.2,1.81,2.02,2.06c1.11,0.34,1.36-0.9,1.84-1.76c1.84-3.26,3.83-6.44,5.78-9.64
		C388.52,161.48,392.48,156.43,399.22,152.54z M378.37,312.01c-1.63,12.02-3.4,23.41-11.81,33.61c-0.46-12.25-0.17-23.31,3.76-34.32
		c-18.45,5.38-27.82,18.24-24.77,35.65c2.02,11.54,7.98,21.34,14.71,30.72c1.34,1.87,2.6,1.37,4.22,0.41
		c6.08-3.62,10.97-8.51,15.52-13.86C394.31,347.37,393.98,327.8,378.37,312.01z M225.43,118.98c6.26-13.02,4.21-25.14-5.25-32.51
		c-8.46-6.6-18.41-8.86-28.83-9.78c-2.42-0.21-2.95,0.85-3.36,3.04c-1.06,5.68-0.46,11.27,0.31,16.87
		c2.17,15.62,11.51,24.86,26.59,26.31c1.41,0.14,3.29,1.1,4.13-0.44c0.91-1.65-1.16-2.46-2.01-3.58
		c-4.47-5.92-8.93-11.84-9.99-20.52C214.76,104.34,221.04,110.32,225.43,118.98z"/>
	<path class="st0" d="M207.44,156.67l-0.22,0c0,0,0.13-0.02,0.13-0.03C207.35,156.63,207.44,156.67,207.44,156.67z"/>
</g>
</svg>
