<?xml version="1.0" encoding="utf-8"?>
<!-- Generator: Adobe Illustrator 25.4.1, SVG Export Plug-In . SVG Version: 6.00 Build 0)  -->
<svg version="1.1" id="Layer_1" xmlns="http://www.w3.org/2000/svg" xmlns:xlink="http://www.w3.org/1999/xlink" x="0px" y="0px"
	 viewBox="0 0 283.46 283.46" style="enable-background:new 0 0 283.46 283.46;" xml:space="preserve">
<style type="text/css">
	.st0{fill:#88C7FF;}
	.st1{fill:#267399;}
	.st2{fill:#080808;}
	.st3{fill:#001E49;}
</style>
<rect class="st0" width="283.46" height="283.46"/>
<path class="st1" d="M87.24,87.6c-2.93-10.99,0.64-30.62,0.64-30.62c23.19-59.58,104.61-29.12,115.1-3.97
	c7.39,17.7,8.42,26.2,8.87,29.98c0.26,2.12-4.73,9.44-4.73,9.44c-0.8,0.96-1.03,2.65-0.5,3.78l16.04,24.71
	c1.93,3.73,0.04,8.36-5.46,8.36h-3.85c-1.25,0-2.75,2.28-2.24,3.41l1.33,2.96c0.51,1.14,0.19,2.76-0.71,3.62l-3.24,3.08
	c0,0,1.67,1.61,1.67,4.05c0,2.44-5.82,4.6-3.14,10.71c1.54,3.51-0.22,8.16-2.91,11.78c-6.12,8.24-12.87,5.74-26.74,3.28
	c-16.46-2.92-10.85,7.43-14.35,12.42c-6.1,8.7,2.5,18.64,4.74,27.23l-87.16-37.6C111.62,152.51,90.17,98.59,87.24,87.6z"/>
<path class="st2" d="M60.93,283.46c-4.71-17.75,10.72-95,22.43-104.36l86.39,38.56c0,0,11.31,36.37,17.94,65.8H60.93z"/>
<path class="st3" d="M73.84,183.54l14.79-22.23c0,0,32.84,3.96,61.89,28.35c-7.71-6.47,25.69,31.94,28.55,42.79
	C179.07,232.45,131.65,192.93,73.84,183.54z"/>
</svg>
