<?xml version="1.0" encoding="utf-8"?>
<!-- Generator: Adobe Illustrator 25.4.1, SVG Export Plug-In . SVG Version: 6.00 Build 0)  -->
<svg version="1.1" id="Layer_1" xmlns="http://www.w3.org/2000/svg" xmlns:xlink="http://www.w3.org/1999/xlink" x="0px" y="0px"
	 viewBox="0 0 283.46 283.46" style="enable-background:new 0 0 283.46 283.46;" xml:space="preserve">
<style type="text/css">
	.st0{fill:#FF85D3;}
	.st1{fill:#080808;}
	.st2{fill:#99257B;}
	.st3{fill:#4C003C;}
</style>
<rect class="st0" width="283.46" height="283.46"/>
<path class="st1" d="M66.85,283.46c-4.78-17.99,21.64-96.32,33.52-105.81l71.28,39.1c11.41,36.69,24.19,36.01,31.11,66.71H66.85z"/>
<path class="st2" d="M93.83,107.17c-3.91-10.59-3.38-22.79-1.82-30.22c12.98-61.99,75.57-52.52,97.1-26.53
	c11.82,14.26,16.64,28.23,16.72,31.99c0.12,5.62-2.07,12.07-2.04,14.46c0.05,3.33-0.14,9.62,4.29,14.53
	c3.68,4.07,9.9,6.88,9.89,10.02c0,6.68-10.25,6.31-9.99,9.79c0.12,1.59,0.56,2.93,3.26,5.42c0.93,0.85,0.25,2.58-0.44,3.62
	c-1.56,2.31-5.5,3.76-5.5,3.76s3.77,3.74,2.59,6.22c-1.05,2.2-6.19,0.67-4.39,10.3c4.57,24.35-51.41,6.84-34.81,11.43
	c-15.08-4.17-14.52,37.76-14.52,37.76l-27.7-18.97l-20.74-9.11C123.93,136.87,97.75,117.77,93.83,107.17z"/>
<path class="st3" d="M145.64,187.3c-18.86-15.83-30.65-23.38-43.3-26.81l-9.35,23.92c51.13,13.55,85.09,47.33,85.09,47.33
	C175.35,221.37,143.55,185.55,145.64,187.3z"/>
<g>
	<path class="st1" d="M206.85,63.42c1.92,3.56,1.93,5.15,1.8,5.34c3.58-5.34,0-15.79,0-15.79c3.28,2.99,3.58,10.46,3.58,10.46
		c3.35-7.51,2.87-13.98-1.01-18c-13.36-13.84-56.03-25.32-87.56-22.51C96.37,25.34,72.1,45.19,75.2,102.83
		c1,18.6-18.73,44.49-4.59,59.12c16.66,17.26,38.76,26.58,65.77-3.87l22.6-27.33c0,0,15.98-37.35,15.98-55.73
		c0-11.93,17.25-7.5,27.3-2.92C205.9,70.99,206.85,63.42,206.85,63.42z"/>
</g>
</svg>
