<?xml version="1.0" encoding="utf-8"?>
<!-- Generator: Adobe Illustrator 25.4.1, SVG Export Plug-In . SVG Version: 6.00 Build 0)  -->
<svg version="1.1" id="Layer_1" xmlns="http://www.w3.org/2000/svg" xmlns:xlink="http://www.w3.org/1999/xlink" x="0px" y="0px"
	 viewBox="0 0 283.46 283.46" style="enable-background:new 0 0 283.46 283.46;" xml:space="preserve">
<style type="text/css">
	.st0{fill:#939598;}
	.st1{fill:#D1D3D4;}
</style>
<rect class="st0" width="283.46" height="283.46"/>
<g>
	<path d="M141.43,260.82c-61.56,1.54-120.01-50.73-118.7-122.44C23.88,75.27,77.8,23.24,141.01,22.61
		c62.75-0.62,121.97,51.33,119.69,123.34C258.56,213.46,201.68,262.54,141.43,260.82z M31.82,142.41
		c0.62,6.04,0.91,12.15,1.93,18.12c3.92,23,14.28,42.74,30.81,59.19c1.03,1.03,3.47,1.87,4.63,1.36
		c11.32-4.89,22.4-10.32,33.75-15.12c11.71-4.96,18.04-12.9,16.19-26.07c-0.43-3.08-0.65-6.32-1.82-9.13
		c-2.6-6.25-5.75-12.28-8.67-18.4c-0.62-1.29-0.88-2.96-1.86-3.84c-7.39-6.66-8.81-13.45-4.66-22.15c0.65-1.37,0.57-3.24,0.36-4.83
		c-0.88-6.77-2.56-13.5-2.81-20.29c-0.56-15.27,1.91-30.23,17.23-37.52c15.08-7.18,31.11-10.53,46.01,1.73
		c1.09,0.9,2.71,1.25,4.14,1.64c8.75,2.35,14.01,8.21,16.21,16.74c3.23,12.53,1.23,24.87-1.72,37.18c-0.5,2.08,0.04,4.69,0.84,6.76
		c2.47,6.42,2.19,13.18-2.32,17.65c-3.96,3.92-5.15,8.34-7.04,12.91c-1.73,4.17-4.17,8.05-6.33,12.04
		c-0.53,0.98-1.43,1.83-1.69,2.86c-3.92,15.52,0.64,25.37,15.08,32.24c4.8,2.28,9.84,4.04,14.69,6.21c5.72,2.56,11.59,4.9,16.93,8.1
		c3.61,2.17,5.66,2.08,8.56-1.04c24.76-26.61,35.13-57.87,29.76-93.83c-9.08-60.83-67.86-102.69-127.78-91.41
		C69.72,43.42,32.05,88.92,31.82,142.41z"/>
	<path class="st1" d="M31.82,142.41c0.23-53.49,37.9-99,90.44-108.89c59.92-11.28,118.71,30.58,127.78,91.41
		c5.37,35.96-5.01,67.22-29.76,93.83c-2.9,3.12-4.95,3.2-8.56,1.04c-5.34-3.21-11.22-5.55-16.93-8.1
		c-4.85-2.17-9.89-3.93-14.69-6.21c-14.44-6.87-19.01-16.72-15.08-32.24c0.26-1.03,1.16-1.88,1.69-2.86
		c2.15-3.99,4.6-7.87,6.33-12.04c1.89-4.58,3.09-8.99,7.04-12.91c4.51-4.47,4.8-11.23,2.32-17.65c-0.8-2.08-1.34-4.68-0.84-6.76
		c2.95-12.32,4.95-24.66,1.72-37.18c-2.2-8.53-7.46-14.38-16.21-16.74c-1.43-0.39-3.05-0.74-4.14-1.64
		c-14.91-12.26-30.93-8.91-46.01-1.73c-15.32,7.29-17.79,22.25-17.23,37.52c0.25,6.79,1.92,13.51,2.81,20.29
		c0.21,1.58,0.29,3.46-0.36,4.83c-4.15,8.7-2.73,15.49,4.66,22.15c0.98,0.88,1.24,2.55,1.86,3.84c2.92,6.12,6.07,12.15,8.67,18.4
		c1.17,2.81,1.39,6.05,1.82,9.13c1.84,13.16-4.49,21.11-16.19,26.07c-11.35,4.8-22.43,10.24-33.75,15.12
		c-1.16,0.5-3.59-0.33-4.63-1.36c-16.54-16.44-26.89-36.19-30.81-59.19C32.73,154.56,32.44,148.46,31.82,142.41z"/>
</g>
</svg>
